<svg data-v-a5ca8489="" xmlns="http://www.w3.org/2000/svg" width="172" height="39" viewBox="0 0 172 39" fill="none"><path fill-rule="evenodd" clip-rule="evenodd" d="M15.5996 9.24974C18.8201 13.4872 20.7321 18.7654 20.7321 24.4885C20.7321 25.8694 20.6187 27.2244 20.4048 28.5454H29.7299C30.5413 28.5454 31.199 27.8909 31.199 27.0827V1.46521C31.199 0.511354 30.2942 -0.195061 29.3673 0.0483929C23.798 1.50812 18.9778 4.80572 15.5996 9.24974Z" fill="#9DC851"></path><path fill-rule="evenodd" clip-rule="evenodd" d="M10.7943 28.5464C10.5794 27.2254 10.4669 25.8704 10.4669 24.4895C10.4669 18.7664 12.3779 13.4882 15.5994 9.25072C12.2203 4.80669 7.40003 1.50909 1.83168 0.0493695C0.904795 -0.194084 0 0.51233 0 1.46619V27.0837C0 27.8919 0.656754 28.5464 1.46816 28.5464H10.7943Z" fill="#2D82B8"></path><path fill-rule="evenodd" clip-rule="evenodd" d="M15.5988 9.24976C12.3773 13.4872 10.4663 18.7654 10.4663 24.4886C10.4663 25.8695 10.5788 27.2244 10.7937 28.5455H20.404C20.6179 27.2244 20.7314 25.8695 20.7314 24.4886C20.7314 18.7654 18.8193 13.4872 15.5988 9.24976Z" fill="#1B588D"></path><path fill-rule="evenodd" clip-rule="evenodd" d="M47.5103 13.9076C48.3026 13.9076 48.9303 13.6681 49.3922 13.1902C49.8541 12.7133 50.0851 12.0896 50.0851 11.3214C50.0851 10.5341 49.8491 9.89258 49.3771 9.3957C48.9062 8.89981 48.2745 8.65137 47.4822 8.65137H45.0219V13.9076H47.5103ZM40.8623 5.19409H47.7371C48.906 5.19409 49.9052 5.36271 50.7347 5.69996C51.5652 6.0372 52.2491 6.4822 52.7863 7.03496C53.3246 7.58772 53.7202 8.22928 53.9743 8.96064C54.2294 9.691 54.3569 10.4513 54.3569 11.2365C54.3569 12.2483 54.1812 13.1343 53.8337 13.8936C53.4842 14.6519 53.0133 15.2844 52.4188 15.7913C51.8243 16.2972 51.1404 16.6813 50.3682 16.9427C49.5949 17.2061 48.7835 17.3368 47.935 17.3368H45.0217V23.942H40.8623V5.19409Z" fill="#1B1A19"></path><path fill-rule="evenodd" clip-rule="evenodd" d="M56.166 10.7595H60.0704L60.212 12.4178C60.5514 11.9678 61.0184 11.5368 61.6119 11.1247C62.2063 10.7126 62.9746 10.5071 63.9185 10.5071C64.276 10.5071 64.5833 10.525 64.8374 10.563C65.0925 10.5999 65.3425 10.6657 65.5875 10.7595L64.9368 14.3285C64.5211 14.1978 64.031 14.1329 63.4656 14.1329C62.5036 14.1329 61.7253 14.4183 61.1318 14.989C60.5373 15.5617 60.2411 16.3719 60.2411 17.4206V23.9419H56.166V10.7595Z" fill="#1B1A19"></path><path fill-rule="evenodd" clip-rule="evenodd" d="M72.6867 20.878C73.1958 20.878 73.6487 20.7802 74.0444 20.5837C74.441 20.3861 74.7754 20.1197 75.0496 19.7825C75.3217 19.4452 75.5246 19.0651 75.6581 18.643C75.7897 18.223 75.855 17.7869 75.855 17.337C75.855 16.887 75.7897 16.4519 75.6581 16.0299C75.5246 15.6088 75.3217 15.2337 75.0496 14.9054C74.7754 14.5781 74.441 14.3157 74.0444 14.1182C73.6487 13.9216 73.1958 13.8228 72.6867 13.8228C72.1775 13.8228 71.7196 13.9216 71.3159 14.1182C70.9092 14.3157 70.5738 14.5781 70.3107 14.9054C70.0466 15.2337 69.8437 15.6088 69.7021 16.0299C69.5616 16.4519 69.4903 16.887 69.4903 17.337C69.4903 17.7869 69.5616 18.223 69.7021 18.643C69.8437 19.0651 70.0466 19.4452 70.3107 19.7825C70.5738 20.1197 70.9092 20.3861 71.3159 20.5837C71.7196 20.7802 72.1775 20.878 72.6867 20.878ZM65.5576 17.337C65.5576 16.3632 65.7324 15.4493 66.0818 14.5962C66.4293 13.7441 66.9153 12.9988 67.5379 12.3622C68.1605 11.7256 68.9097 11.2238 69.7874 10.8576C70.664 10.4924 71.6301 10.3098 72.6865 10.3098C73.7429 10.3098 74.704 10.4924 75.5726 10.8576C76.4393 11.2238 77.1844 11.7256 77.808 12.3622C78.4296 12.9988 78.9146 13.7441 79.2641 14.5962C79.6136 15.4493 79.7873 16.3632 79.7873 17.337C79.7873 18.3109 79.6136 19.2248 79.2641 20.0779C78.9146 20.931 78.4296 21.6753 77.808 22.3119C77.1844 22.9494 76.4393 23.4553 75.5726 23.8305C74.704 24.2046 73.7429 24.3922 72.6865 24.3922C71.6301 24.3922 70.664 24.2046 69.7874 23.8305C68.9097 23.4553 68.1605 22.9494 67.5379 22.3119C66.9153 21.6753 66.4293 20.931 66.0818 20.0779C65.7324 19.2248 65.5576 18.3109 65.5576 17.337Z" fill="#1B1A19"></path><path fill-rule="evenodd" clip-rule="evenodd" d="M77.251 5.19409H81.9758L86.5861 18.8834L91.085 5.19409H95.612L88.6799 23.942H84.182L77.251 5.19409Z" fill="#1B1A19"></path><path fill-rule="evenodd" clip-rule="evenodd" d="M111.964 14.3852C111.681 14.2165 111.374 14.0948 111.044 14.02C110.714 13.9452 110.304 13.9072 109.814 13.9072C108.776 13.9072 107.97 14.2535 107.395 14.9479C106.82 15.6403 106.531 16.5303 106.531 17.6179C106.531 18.5738 106.768 19.355 107.239 19.9636C107.711 20.5743 108.417 20.8776 109.361 20.8776C109.814 20.8776 110.205 20.7988 110.535 20.6391C110.865 20.4805 111.139 20.27 111.356 20.0065C111.572 19.7451 111.728 19.4358 111.823 19.0796C111.916 18.7234 111.964 18.3582 111.964 17.9821V14.3852ZM112.049 22.621C111.634 23.1079 111.101 23.516 110.451 23.8432C109.8 24.1715 109.059 24.3361 108.23 24.3361C107.419 24.3361 106.659 24.1755 105.952 23.8582C105.245 23.5389 104.632 23.0849 104.114 22.4943C103.595 21.9046 103.184 21.1922 102.883 20.3581C102.581 19.5249 102.431 18.583 102.431 17.5334C102.431 16.353 102.643 15.3174 103.067 14.4274C103.491 13.5374 104.038 12.802 104.708 12.2203C105.377 11.6396 106.122 11.2046 106.943 10.9143C107.764 10.6229 108.569 10.4772 109.362 10.4772C110.002 10.4772 110.503 10.5201 110.861 10.6049C111.22 10.6898 111.586 10.7975 111.965 10.9282V5.19409H116.011V23.942H112.219L112.049 22.621Z" fill="#1B1A19"></path><path fill-rule="evenodd" clip-rule="evenodd" d="M126.097 18.1239C126.001 18.1049 125.823 18.081 125.559 18.053C125.294 18.0251 124.992 18.0121 124.653 18.0121C123.522 18.0121 122.72 18.1708 122.249 18.489C121.778 18.8083 121.541 19.2583 121.541 19.839C121.541 20.9246 122.201 21.4684 123.522 21.4684C123.841 21.4684 124.159 21.4175 124.47 21.3147C124.78 21.2119 125.054 21.0663 125.289 20.8777C125.525 20.6911 125.719 20.4566 125.87 20.1753C126.021 19.8949 126.097 19.5666 126.097 19.1915V18.1239ZM126.097 22.706C125.644 23.2308 125.074 23.6329 124.385 23.9143C123.697 24.1956 122.929 24.3363 122.079 24.3363C121.607 24.3363 121.113 24.2695 120.594 24.1388C120.075 24.0081 119.594 23.7876 119.152 23.4783C118.707 23.17 118.34 22.7519 118.047 22.2281C117.755 21.7032 117.609 21.0467 117.609 20.2605C117.609 19.4922 117.764 18.8087 118.076 18.2081C118.388 17.6094 118.816 17.1076 119.364 16.7045C119.91 16.3014 120.556 15.997 121.301 15.7915C122.046 15.585 122.852 15.4822 123.72 15.4822C124.191 15.4822 124.668 15.4912 125.149 15.5101C125.629 15.5291 125.945 15.557 126.097 15.594V15.3126C126.097 14.9763 126.026 14.691 125.884 14.4555C125.742 14.222 125.554 14.0245 125.318 13.8658C125.083 13.7072 124.814 13.5934 124.512 13.5286C124.21 13.4627 123.89 13.4298 123.55 13.4298C122.645 13.4298 121.895 13.5416 121.301 13.7671C120.707 13.9916 120.202 14.245 119.788 14.5264L118.119 12.0529C118.401 11.8464 118.722 11.6398 119.081 11.4343C119.438 11.2278 119.863 11.0412 120.354 10.8726C120.844 10.7029 121.395 10.5672 122.009 10.4645C122.621 10.3617 123.323 10.3098 124.116 10.3098C126.134 10.3098 127.624 10.8486 128.585 11.9262C129.547 13.0038 130.029 14.4515 130.029 16.2694V23.9422H126.209L126.097 22.706Z" fill="#1B1A19"></path><path fill-rule="evenodd" clip-rule="evenodd" d="M143.222 17.1959L139.592 8.21902L135.962 17.1959H143.222ZM139.017 6.63574H140.27L147.399 23.9419H145.963L143.691 18.3634H135.491L133.246 23.9419H131.888L139.017 6.63574Z" fill="#1B1A19"></path><path fill-rule="evenodd" clip-rule="evenodd" d="M149.096 6.63574H159.542V7.80412H150.35V14.3424H157.531V15.5098H150.35V23.9419H149.096V6.63574Z" fill="#1B1A19"></path><path fill-rule="evenodd" clip-rule="evenodd" d="M166.307 15.4318C167.769 15.4318 168.857 15.1075 169.571 14.459C170.285 13.8105 170.642 12.8636 170.642 11.6174C170.642 10.3712 170.285 9.4253 169.571 8.77676C168.857 8.12721 167.769 7.80394 166.307 7.80394H161.842V15.4318H166.307ZM160.587 6.63574H165.942C167.073 6.63574 168.026 6.76146 168.801 7.0119C169.575 7.26333 170.198 7.61355 170.668 8.06254C171.138 8.51353 171.478 9.04035 171.687 9.64599C171.896 10.2516 172 10.9092 172 11.6176C172 12.327 171.896 12.9835 171.687 13.5891C171.478 14.1948 171.138 14.7226 170.668 15.1726C170.198 15.6216 169.575 15.9728 168.801 16.2232C168.026 16.4747 167.073 16.5994 165.942 16.5994H161.842V23.9419H160.587V6.63574Z" fill="#1B1A19"></path><path fill-rule="evenodd" clip-rule="evenodd" d="M40.8623 30.5483H42.3385V34.3588C42.3385 34.5713 42.3596 34.7639 42.4008 34.9335C42.4439 35.1041 42.5132 35.2498 42.6096 35.3715C42.707 35.4952 42.8346 35.59 42.9932 35.6569C43.1519 35.7237 43.3477 35.7576 43.5807 35.7576C43.8077 35.7576 44.0005 35.7237 44.1591 35.6569C44.3168 35.59 44.4453 35.4952 44.5427 35.3715C44.6401 35.2498 44.7094 35.1041 44.7506 34.9335C44.7938 34.7639 44.8149 34.5713 44.8149 34.3588V30.5483H46.3001V34.5434C46.3001 34.9285 46.2368 35.2827 46.1103 35.604C45.9848 35.9263 45.803 36.2007 45.567 36.4291C45.33 36.6576 45.0438 36.8352 44.7084 36.9639C44.371 37.0927 43.9954 37.1575 43.5807 37.1575C43.167 37.1575 42.7914 37.0946 42.455 36.9699C42.1176 36.8442 41.8314 36.6656 41.5954 36.4341C41.3584 36.2017 41.1766 35.9263 41.0511 35.604C40.9246 35.2827 40.8623 34.9285 40.8623 34.5434V30.5483Z" fill="#1B1A19"></path><path fill-rule="evenodd" clip-rule="evenodd" d="M47.4067 32.4585H48.7474L48.7855 32.9514C48.9351 32.7718 49.13 32.6262 49.373 32.5164C49.616 32.4077 49.8701 32.3528 50.1352 32.3528C50.6604 32.3528 51.0761 32.5074 51.3834 32.8157C51.6907 33.125 51.8443 33.582 51.8443 34.1857V36.9844H50.4465V34.3792C50.4465 34.1278 50.3832 33.9282 50.2577 33.7816C50.1312 33.6329 49.9544 33.5591 49.7275 33.5591C49.5728 33.5591 49.4362 33.586 49.3198 33.6409C49.2033 33.6948 49.1059 33.7686 49.0285 33.8574C48.9512 33.9482 48.892 34.053 48.8538 34.1717C48.8146 34.2904 48.7956 34.4171 48.7956 34.5528V36.9844H47.4067V32.4585Z" fill="#1B1A19"></path><path fill-rule="evenodd" clip-rule="evenodd" d="M55.4961 34.9876C55.463 34.9806 55.4018 34.9716 55.3104 34.9616C55.22 34.9536 55.1156 34.9477 55.0001 34.9477C54.6114 34.9477 54.3363 35.0025 54.1746 35.1123C54.0129 35.222 53.9316 35.3757 53.9316 35.5753C53.9316 35.9484 54.1575 36.134 54.6114 36.134C54.7219 36.134 54.8294 36.117 54.9368 36.0821C55.0433 36.0462 55.1376 35.9973 55.218 35.9325C55.2993 35.8686 55.3656 35.7878 55.4178 35.691C55.469 35.5942 55.4961 35.4825 55.4961 35.3537V34.9876ZM55.4963 36.5604C55.3396 36.74 55.1438 36.8787 54.9078 36.9745C54.6718 37.0712 54.4077 37.1191 54.1165 37.1191C53.9548 37.1191 53.7851 37.0962 53.6073 37.0523C53.4276 37.0074 53.2629 36.9306 53.1113 36.8248C52.9596 36.719 52.8331 36.5753 52.7317 36.3958C52.6322 36.2152 52.582 35.9907 52.582 35.7203C52.582 35.4569 52.6353 35.2224 52.7417 35.0158C52.8492 34.8093 52.9968 34.6387 53.1846 34.5C53.3723 34.3613 53.5933 34.2566 53.8493 34.1857C54.1054 34.1149 54.3816 34.0799 54.6788 34.0799C54.8415 34.0799 55.0052 34.0839 55.1699 34.0899C55.3356 34.0969 55.443 34.1049 55.4963 34.1189V34.0221C55.4963 33.9063 55.4701 33.8086 55.4219 33.7277C55.3737 33.6469 55.3095 33.5801 55.2281 33.5252C55.1468 33.4703 55.0544 33.4324 54.952 33.4095C54.8485 33.3865 54.7371 33.3755 54.6216 33.3755C54.3103 33.3755 54.0532 33.4144 53.8493 33.4913C53.6455 33.5691 53.4718 33.6559 53.3292 33.7517L52.7568 32.9026C52.8542 32.8327 52.9636 32.7619 53.0871 32.6911C53.2097 32.6202 53.3553 32.5554 53.524 32.4975C53.6927 32.4396 53.8815 32.3927 54.0924 32.3578C54.3032 32.3219 54.5433 32.3049 54.8154 32.3049C55.5083 32.3049 56.0194 32.4895 56.3498 32.8597C56.6802 33.2299 56.8449 33.7267 56.8449 34.3503V36.9844H55.5344L55.4963 36.5604Z" fill="#1B1A19"></path><path fill-rule="evenodd" clip-rule="evenodd" d="M63.7022 36.3858C63.5144 36.5913 63.2664 36.7689 62.9591 36.9166C62.6518 37.0652 62.2872 37.1391 61.8665 37.1391C61.4969 37.1391 61.1625 37.0792 60.8613 36.9605C60.561 36.8417 60.3029 36.6731 60.089 36.4586C59.8761 36.2431 59.7084 35.9877 59.5889 35.6913C59.4694 35.395 59.4092 35.0707 59.4092 34.7175C59.4092 34.3823 59.4704 34.069 59.594 33.7756C59.7165 33.4833 59.8872 33.2279 60.1041 33.0094C60.32 32.7898 60.5791 32.6182 60.8814 32.4925C61.1816 32.3668 61.51 32.3049 61.8665 32.3049C62.2802 32.3049 62.6397 32.3728 62.945 32.5075C63.2483 32.6432 63.5044 32.8228 63.7122 33.0473L62.8667 33.9552C62.7632 33.8395 62.6367 33.7357 62.4881 33.6459C62.3385 33.5561 62.1416 33.5112 61.8956 33.5112C61.7269 33.5112 61.5773 33.5451 61.4447 33.612C61.3112 33.6798 61.1977 33.7686 61.1043 33.8774C61.0099 33.9862 60.9396 34.1139 60.8894 34.2595C60.8412 34.4032 60.8171 34.5559 60.8171 34.7175C60.8171 34.8652 60.8412 35.0119 60.8894 35.1555C60.9396 35.3002 61.0099 35.4289 61.1043 35.5417C61.1977 35.6554 61.3112 35.7462 61.4447 35.8161C61.5773 35.8869 61.7269 35.9228 61.8956 35.9228C62.1346 35.9228 62.3355 35.8759 62.4981 35.7821C62.6588 35.6903 62.7884 35.5886 62.8868 35.4798L63.7022 36.3858Z" fill="#1B1A19"></path><path fill-rule="evenodd" clip-rule="evenodd" d="M66.4403 35.933C66.615 35.933 66.7707 35.8991 66.9052 35.8322C67.0418 35.7644 67.1573 35.6726 67.2507 35.5568C67.3441 35.4401 67.4134 35.3104 67.4596 35.1657C67.5047 35.02 67.5278 34.8714 67.5278 34.7177C67.5278 34.5621 67.5047 34.4134 67.4596 34.2677C67.4134 34.124 67.3441 33.9953 67.2507 33.8816C67.1573 33.7698 67.0418 33.68 66.9052 33.6122C66.7707 33.5453 66.615 33.5114 66.4403 33.5114C66.2656 33.5114 66.1079 33.5453 65.9693 33.6122C65.8297 33.68 65.7142 33.7698 65.6249 33.8816C65.5335 33.9953 65.4642 34.124 65.415 34.2677C65.3668 34.4134 65.3427 34.5621 65.3427 34.7177C65.3427 34.8714 65.3668 35.02 65.415 35.1657C65.4642 35.3104 65.5335 35.4401 65.6249 35.5568C65.7142 35.6726 65.8297 35.7644 65.9693 35.8322C66.1079 35.8991 66.2656 35.933 66.4403 35.933ZM63.9927 34.7175C63.9927 34.3823 64.0539 34.069 64.1734 33.7756C64.2929 33.4833 64.4596 33.2279 64.6725 33.0094C64.8864 32.7898 65.1445 32.6182 65.4448 32.4925C65.746 32.3668 66.0774 32.3049 66.4409 32.3049C66.8035 32.3049 67.1338 32.3668 67.4311 32.4925C67.7283 32.6182 67.9854 32.7898 68.1983 33.0094C68.4122 33.2279 68.5789 33.4833 68.6984 33.7756C68.8179 34.069 68.8782 34.3823 68.8782 34.7175C68.8782 35.0518 68.8179 35.3651 68.6984 35.6574C68.5789 35.9507 68.4122 36.2052 68.1983 36.4247C67.9854 36.6432 67.7283 36.8178 67.4311 36.9465C67.1338 37.0752 66.8035 37.1391 66.4409 37.1391C66.0774 37.1391 65.746 37.0752 65.4448 36.9465C65.1445 36.8178 64.8864 36.6432 64.6725 36.4247C64.4596 36.2052 64.2929 35.9507 64.1734 35.6574C64.0539 35.3651 63.9927 35.0518 63.9927 34.7175Z" fill="#1B1A19"></path><path fill-rule="evenodd" clip-rule="evenodd" d="M69.7026 32.4585H71.0433L71.0915 32.9604C71.2341 32.7868 71.4148 32.6431 71.6357 32.5264C71.8557 32.4107 72.1137 32.3528 72.412 32.3528C72.5938 32.3528 72.7554 32.3727 72.898 32.4107C73.0406 32.4496 73.1642 32.4995 73.2716 32.5603C73.3791 32.6212 73.4714 32.689 73.5528 32.7629C73.6341 32.8367 73.7004 32.9085 73.7516 32.9794C73.9394 32.7798 74.1674 32.6262 74.4365 32.5164C74.7056 32.4077 74.9858 32.3528 75.277 32.3528C75.8595 32.3528 76.3053 32.5164 76.6116 32.8447C76.9199 33.1729 77.0735 33.6199 77.0735 34.1857V36.9844H75.6747V34.4082C75.6747 34.1378 75.6154 33.9282 75.4959 33.7816C75.3754 33.6329 75.1967 33.5591 74.9567 33.5591C74.6845 33.5591 74.4676 33.6529 74.3059 33.8394C74.1433 34.026 74.0639 34.2635 74.0639 34.5528V36.9844H72.7133V34.4082C72.7133 34.1378 72.653 33.9282 72.5335 33.7816C72.414 33.6329 72.2343 33.5591 71.9942 33.5591C71.7291 33.5591 71.5142 33.6529 71.3495 33.8394C71.1838 34.026 71.1015 34.2635 71.1015 34.5528V36.9844H69.7026V32.4585Z" fill="#1B1A19"></path><path fill-rule="evenodd" clip-rule="evenodd" d="M79.4731 35.7875C79.6538 35.9092 79.9229 35.97 80.2794 35.97C80.6219 35.97 80.892 35.8563 81.0898 35.6278C81.2877 35.4003 81.3861 35.096 81.3861 34.7169C81.3861 34.5682 81.368 34.4235 81.3339 34.2828C81.2967 34.1402 81.2425 34.0164 81.1672 33.9107C81.0928 33.8049 80.9964 33.7201 80.8769 33.6552C80.7564 33.5914 80.6088 33.5585 80.4341 33.5585C80.2794 33.5585 80.1409 33.5874 80.0214 33.6453C79.9019 33.7031 79.8014 33.781 79.7211 33.8767C79.6398 33.9735 79.5785 34.0833 79.5363 34.205C79.4941 34.3267 79.4731 34.4525 79.4731 34.5812V35.7875ZM78.084 32.4586H79.4246C79.4377 32.5424 79.4477 32.6242 79.4527 32.7051C79.4598 32.7859 79.4658 32.8677 79.4728 32.9515C79.6224 32.7649 79.8132 32.6212 80.0452 32.5215C80.2792 32.4227 80.5222 32.3728 80.7743 32.3728C81.1047 32.3728 81.3959 32.4367 81.6479 32.5654C81.901 32.6941 82.1109 32.8667 82.2796 33.0812C82.4473 33.2977 82.5738 33.5452 82.6582 33.8235C82.7425 34.1039 82.7837 34.3923 82.7837 34.6876C82.7837 35.1067 82.7124 35.4699 82.5708 35.7782C82.4282 36.0865 82.2444 36.3409 82.0165 36.5404C81.7905 36.74 81.5355 36.8887 81.2493 36.9845C80.9651 37.0802 80.6829 37.1291 80.4057 37.1291C80.1848 37.1291 80.004 37.1102 79.8614 37.0713C79.7188 37.0323 79.5893 36.9944 79.4728 36.9545V38.9141H78.084V32.4586Z" fill="#1B1A19"></path><path fill-rule="evenodd" clip-rule="evenodd" d="M86.251 34.9876C86.2179 34.9806 86.1566 34.9716 86.0652 34.9616C85.9759 34.9536 85.8714 34.9477 85.7549 34.9477C85.3663 34.9477 85.0922 35.0025 84.9295 35.1123C84.7688 35.222 84.6875 35.3757 84.6875 35.5753C84.6875 35.9484 84.9134 36.134 85.3663 36.134C85.4778 36.134 85.5852 36.117 85.6927 36.0821C85.7991 36.0462 85.8935 35.9973 85.9739 35.9325C86.0552 35.8686 86.1205 35.7878 86.1737 35.691C86.2249 35.5942 86.251 35.4825 86.251 35.3537V34.9876ZM86.2511 36.5604C86.0955 36.74 85.8987 36.8787 85.6627 36.9745C85.4267 37.0712 85.1636 37.1191 84.8713 37.1191C84.7107 37.1191 84.54 37.0962 84.3622 37.0523C84.1835 37.0074 84.0188 36.9306 83.8661 36.8248C83.7145 36.719 83.589 36.5753 83.4875 36.3958C83.3881 36.2152 83.3369 35.9907 83.3369 35.7203C83.3369 35.4569 83.3911 35.2224 83.4976 35.0158C83.605 34.8093 83.7517 34.6387 83.9394 34.5C84.1272 34.3613 84.3492 34.2566 84.6052 34.1857C84.8603 34.1149 85.1375 34.0799 85.4347 34.0799C85.5974 34.0799 85.7611 34.0839 85.9258 34.0899C86.0915 34.0969 86.1989 34.1049 86.2511 34.1189V34.0221C86.2511 33.9063 86.226 33.8086 86.1778 33.7277C86.1296 33.6469 86.0644 33.5801 85.983 33.5252C85.9027 33.4703 85.8103 33.4324 85.7069 33.4095C85.6034 33.3865 85.493 33.3755 85.3765 33.3755C85.0662 33.3755 84.8091 33.4144 84.6052 33.4913C84.4004 33.5691 84.2276 33.6559 84.0851 33.7517L83.5116 32.9026C83.6091 32.8327 83.7195 32.7619 83.842 32.6911C83.9645 32.6202 84.1112 32.5554 84.2789 32.4975C84.4476 32.4396 84.6364 32.3927 84.8472 32.3578C85.0581 32.3219 85.2981 32.3049 85.5713 32.3049C86.2632 32.3049 86.7753 32.4895 87.1057 32.8597C87.4351 33.2299 87.5998 33.7267 87.5998 34.3503V36.9844H86.2893L86.2511 36.5604Z" fill="#1B1A19"></path><path fill-rule="evenodd" clip-rule="evenodd" d="M88.8629 31.0016C88.9925 30.8609 89.1632 30.7282 89.3731 30.6064C89.5829 30.4847 89.8149 30.4229 90.067 30.4229C90.1905 30.4229 90.306 30.4438 90.4124 30.4857C90.5199 30.5266 90.6203 30.5735 90.7187 30.6254C90.8151 30.6773 90.9155 30.7232 91.019 30.7661C91.1224 30.807 91.2369 30.8279 91.3594 30.8279C91.5532 30.8279 91.7209 30.79 91.8595 30.7122C91.9981 30.6354 92.1236 30.5546 92.233 30.4717L92.7281 31.234C92.5986 31.3757 92.4279 31.5084 92.219 31.6341C92.0081 31.7589 91.7761 31.8217 91.5241 31.8217C91.3945 31.8217 91.278 31.8008 91.1746 31.7589C91.0702 31.7179 90.9708 31.6711 90.8733 31.6202C90.7769 31.5683 90.6755 31.5214 90.5721 31.4785C90.4697 31.4376 90.3552 31.4166 90.2337 31.4166C90.0388 31.4166 89.8721 31.4535 89.7326 31.5284C89.593 31.6012 89.4685 31.681 89.358 31.7638L88.8629 31.0016ZM88.6206 32.4586H89.9602L89.9994 32.9515C90.148 32.7719 90.3438 32.6262 90.5858 32.5165C90.8299 32.4077 91.0839 32.3528 91.349 32.3528C91.8743 32.3528 92.29 32.5075 92.5973 32.8158C92.9046 33.1251 93.0582 33.5821 93.0582 34.1857V36.9844H91.6593V34.3793C91.6593 34.1278 91.5971 33.9283 91.4706 33.7816C91.345 33.633 91.1683 33.5591 90.9413 33.5591C90.7857 33.5591 90.6501 33.5861 90.5336 33.6409C90.4171 33.6948 90.3197 33.7686 90.2414 33.8574C90.1651 33.9482 90.1058 34.053 90.0667 34.1717C90.0285 34.2905 90.0094 34.4172 90.0094 34.5529V36.9844H88.6206V32.4586Z" fill="#1B1A19"></path><path fill-rule="evenodd" clip-rule="evenodd" d="M94.7294 30.4041H96.1082L95.2928 31.774H94.2635L94.7294 30.4041ZM94.1074 36.9843H95.5053V32.4585H94.1074V36.9843Z" fill="#1B1A19"></path><path fill-rule="evenodd" clip-rule="evenodd" d="M99.2163 34.9876C99.1831 34.9806 99.1219 34.9716 99.0305 34.9616C98.9401 34.9536 98.8357 34.9477 98.7202 34.9477C98.3315 34.9477 98.0564 35.0025 97.8947 35.1123C97.733 35.222 97.6517 35.3757 97.6517 35.5753C97.6517 35.9484 97.8776 36.134 98.3315 36.134C98.442 36.134 98.5495 36.117 98.6569 36.0821C98.7634 36.0462 98.8578 35.9973 98.9381 35.9325C99.0194 35.8686 99.0847 35.7878 99.1379 35.691C99.1891 35.5942 99.2163 35.4825 99.2163 35.3537V34.9876ZM99.2165 36.5604C99.0598 36.74 98.864 36.8787 98.628 36.9745C98.392 37.0712 98.1279 37.1191 97.8367 37.1191C97.675 37.1191 97.5053 37.0962 97.3275 37.0523C97.1478 37.0074 96.9831 36.9306 96.8305 36.8248C96.6798 36.719 96.5533 36.5753 96.4519 36.3958C96.3525 36.2152 96.3022 35.9907 96.3022 35.7203C96.3022 35.4569 96.3555 35.2224 96.4619 35.0158C96.5694 34.8093 96.717 34.6387 96.9048 34.5C97.0926 34.3613 97.3135 34.2566 97.5696 34.1857C97.8256 34.1149 98.1018 34.0799 98.399 34.0799C98.5617 34.0799 98.7254 34.0839 98.8901 34.0899C99.0558 34.0969 99.1632 34.1049 99.2165 34.1189V34.0221C99.2165 33.9063 99.1904 33.8086 99.1422 33.7277C99.094 33.6469 99.0297 33.5801 98.9483 33.5252C98.867 33.4703 98.7746 33.4324 98.6712 33.4095C98.5688 33.3865 98.4573 33.3755 98.3408 33.3755C98.0305 33.3755 97.7734 33.4144 97.5696 33.4913C97.3657 33.5691 97.192 33.6559 97.0494 33.7517L96.476 32.9026C96.5744 32.8327 96.6838 32.7619 96.8064 32.6911C96.9299 32.6202 97.0755 32.5554 97.2432 32.4975C97.4129 32.4396 97.6017 32.3927 97.8126 32.3578C98.0225 32.3219 98.2635 32.3049 98.5356 32.3049C99.2285 32.3049 99.7397 32.4895 100.07 32.8597C100.4 33.2299 100.565 33.7267 100.565 34.3503V36.9844H99.2546L99.2165 36.5604Z" fill="#1B1A19"></path><path fill-rule="evenodd" clip-rule="evenodd" d="M132.927 34.2393C132.927 34.1415 132.948 34.0437 132.99 33.943C133.032 33.8432 133.095 33.7504 133.176 33.6666C133.257 33.5828 133.36 33.5129 133.483 33.4581C133.607 33.4032 133.75 33.3752 133.913 33.3752C134.076 33.3752 134.215 33.4032 134.333 33.4581C134.45 33.5129 134.548 33.5828 134.626 33.6666C134.704 33.7504 134.763 33.8432 134.802 33.943C134.841 34.0437 134.86 34.1415 134.86 34.2393H132.927ZM135.515 35.6173C135.411 35.6941 135.244 35.7869 135.017 35.8937C134.789 36.0004 134.493 36.0533 134.129 36.0533C133.757 36.0533 133.466 35.9615 133.255 35.7769C133.043 35.5923 132.934 35.3778 132.928 35.1314H136.189V34.8989C136.189 34.5178 136.14 34.1665 136.043 33.8463C135.944 33.526 135.8 33.2506 135.608 33.0211C135.416 32.7916 135.18 32.612 134.9 32.4833C134.62 32.3536 134.294 32.2888 133.924 32.2888C133.552 32.2888 133.22 32.3556 132.928 32.4873C132.634 32.62 132.387 32.7966 132.185 33.0161C131.984 33.2366 131.829 33.4931 131.721 33.7884C131.614 34.0817 131.56 34.3881 131.56 34.7043C131.56 35.0665 131.617 35.3988 131.732 35.6991C131.845 36.0004 132.011 36.2569 132.229 36.4704C132.448 36.6839 132.713 36.8505 133.025 36.9703C133.337 37.09 133.689 37.1499 134.079 37.1499C134.373 37.1499 134.633 37.1219 134.861 37.067C135.089 37.0122 135.285 36.9493 135.451 36.8775C135.618 36.8066 135.752 36.7338 135.857 36.66C135.961 36.5851 136.039 36.5322 136.091 36.4993L135.515 35.6173ZM119.951 35.7818C119.86 35.8467 119.762 35.9025 119.658 35.9514C119.554 36.0003 119.431 36.0243 119.287 36.0243C119.098 36.0243 118.96 35.9644 118.872 35.8447C118.784 35.7249 118.74 35.5553 118.74 35.3348V33.5408H119.922V32.4443H118.74V31.225H117.334V32.4443H116.609V33.5408H117.334V35.258C117.334 35.5423 117.363 35.8008 117.422 36.0342C117.481 36.2667 117.578 36.4653 117.715 36.6309C117.851 36.7955 118.031 36.9252 118.252 37.019C118.474 37.1118 118.747 37.1597 119.072 37.1597C119.593 37.1597 120.074 36.9841 120.517 36.6349L119.951 35.7818ZM132.125 30.8238C131.916 30.6492 131.685 30.5265 131.431 30.4547C131.177 30.3838 130.927 30.3479 130.679 30.3479C130.445 30.3479 130.215 30.3858 129.991 30.4596C129.766 30.5345 129.566 30.6472 129.391 30.7989C129.215 30.9515 129.073 31.1441 128.966 31.3766C128.858 31.6091 128.804 31.8874 128.804 32.2107V32.4442H128.062V33.5407H128.804V36.994H130.201V33.5407H131.284V32.4442H130.201V32.1918C130.201 31.9653 130.259 31.7907 130.377 31.6679C130.494 31.5452 130.65 31.4834 130.846 31.4834C130.969 31.4834 131.09 31.5033 131.207 31.5412C131.324 31.5801 131.431 31.635 131.528 31.7069L132.125 30.8238ZM125.944 36.9939H127.351V32.4431H125.944V36.9939ZM121.043 36.9941H125.328V35.7958H122.518V30.5226H121.043V36.9941ZM113.009 34.2393C113.009 34.1415 113.031 34.0437 113.074 33.943C113.116 33.8432 113.177 33.7504 113.26 33.6666C113.34 33.5828 113.443 33.5129 113.567 33.4581C113.69 33.4032 113.833 33.3752 113.997 33.3752C114.159 33.3752 114.299 33.4032 114.416 33.4581C114.534 33.5129 114.631 33.5828 114.709 33.6666C114.787 33.7504 114.846 33.8432 114.884 33.943C114.923 34.0437 114.944 34.1415 114.944 34.2393H113.009ZM115.598 35.6173C115.494 35.6941 115.327 35.7869 115.101 35.8937C114.872 36.0004 114.576 36.0533 114.212 36.0533C113.84 36.0533 113.549 35.9615 113.337 35.7769C113.126 35.5923 113.017 35.3778 113.01 35.1314H116.271V34.8989C116.271 34.5178 116.223 34.1665 116.125 33.8463C116.027 33.526 115.883 33.2506 115.691 33.0211C115.499 32.7916 115.262 32.612 114.983 32.4833C114.703 32.3536 114.377 32.2888 114.006 32.2888C113.635 32.2888 113.303 32.3556 113.01 32.4873C112.718 32.62 112.469 32.7966 112.269 33.0161C112.066 33.2366 111.912 33.4931 111.805 33.7884C111.697 34.0817 111.643 34.3881 111.643 34.7043C111.643 35.0665 111.7 35.3988 111.814 35.6991C111.928 36.0004 112.094 36.2569 112.312 36.4704C112.53 36.6839 112.796 36.8505 113.108 36.9703C113.42 37.09 113.772 37.1499 114.163 37.1499C114.456 37.1499 114.716 37.1219 114.944 37.067C115.172 37.0122 115.369 36.9493 115.534 36.8775C115.7 36.8066 115.836 36.7338 115.94 36.66C116.043 36.5851 116.122 36.5322 116.174 36.4993L115.598 35.6173ZM104.281 36.9941H105.687L105.852 32.7935L107.278 35.2869H108.041L109.388 32.7646L109.573 36.9941H111.048L110.745 30.5226H109.339L107.679 33.5598L105.98 30.5226H104.583L104.281 36.9941ZM126.648 31.9234C126.214 31.9234 125.855 31.5672 125.855 31.1361C125.855 30.7041 126.214 30.3479 126.648 30.3479C127.093 30.3479 127.441 30.6931 127.441 31.1361C127.441 31.5672 127.082 31.9234 126.648 31.9234Z" fill="#1B1A19"></path><path fill-rule="evenodd" clip-rule="evenodd" d="M99.709 9.00718C97.7789 9.76148 95.9211 7.91463 96.6803 5.99793C96.9604 5.29152 97.6162 4.7617 98.3683 4.632C100.023 4.34364 101.374 5.68563 101.084 7.32994C100.952 8.07726 100.419 8.7288 99.709 9.00718Z" fill="#1B1A19"></path><path fill-rule="evenodd" clip-rule="evenodd" d="M96.7686 23.9463H100.863V10.6951H96.7686V23.9463Z" fill="#1B1A19"></path></svg>