<svg xmlns="http://www.w3.org/2000/svg" width="276" height="227" viewBox="0 0 276 227" fill="none" data-v-cb739c68=""><path d="M0.521802 111.425C-0.952332 176.434 72.5832 224.597 143.815 226.212C215.046 227.826 273.986 176.434 275.46 111.425C276.935 46.4154 237.341 -16.5398 143.815 5.34485C74.439 21.5776 1.9954 46.4154 0.521802 111.425Z" fill="#BDE2FF" data-v-cb739c68=""></path><mask id="mask0_326_6642" style="mask-type:alpha;" maskUnits="userSpaceOnUse" x="0" y="0" width="276" height="227" data-v-cb739c68=""><path d="M0.521802 111.425C-0.952332 176.434 72.5832 224.597 143.815 226.212C215.046 227.826 273.986 176.434 275.46 111.425C276.935 46.4154 237.341 -16.5398 143.815 5.34485C74.439 21.5776 1.9954 46.4154 0.521802 111.425Z" fill="#BDE2FF" data-v-cb739c68=""></path></mask><g mask="url(#mask0_326_6642)" data-v-cb739c68=""><path d="M26.3413 185.637L252.506 187.106V230.375H26.3413V185.637Z" fill="#55749D" data-v-cb739c68=""></path><path d="M36.4014 169.273H231.163L259.466 181.531V188.639L16.5342 186.185V178.95L36.4014 169.273Z" fill="#C4C8E1" data-v-cb739c68=""></path></g><path d="M171.312 177.791V179.599H117.676V178.133C119.146 177.58 120.539 176.838 121.818 175.927C124.095 174.295 125.951 172.145 127.231 169.654C128.511 167.162 129.179 164.401 129.18 161.6C129.18 160.136 128.996 158.677 128.632 157.259C127.983 154.708 126.771 152.335 125.086 150.313C123.4 148.291 121.283 146.672 118.89 145.575H170.941C168.548 146.672 166.431 148.291 164.746 150.313C163.06 152.335 161.848 154.708 161.199 157.259C160.837 158.678 160.655 160.136 160.659 161.6C160.657 164.401 161.324 167.161 162.603 169.653C163.882 172.145 165.737 174.295 168.014 175.927C169.045 176.661 170.151 177.286 171.312 177.791V177.791Z" fill="#55749D" data-v-cb739c68=""></path><path opacity="0.1" d="M170.941 145.575C168.548 146.672 166.431 148.291 164.745 150.313C163.06 152.335 161.848 154.708 161.199 157.259H128.633C127.985 154.708 126.773 152.335 125.087 150.313C123.401 148.291 121.284 146.672 118.892 145.575H170.941Z" fill="#020203" data-v-cb739c68=""></path><path d="M56.265 136.333V146.519C56.1408 149.085 57.0371 151.595 58.7585 153.502C60.48 155.41 62.8862 156.558 65.4516 156.696H223.252C225.818 156.559 228.226 155.411 229.949 153.504C231.672 151.597 232.57 149.086 232.447 146.519V136.333H56.265Z" fill="#7086AA" data-v-cb739c68=""></path><path d="M102.641 176.491H186.345C187.057 176.491 187.739 176.773 188.243 177.277C188.747 177.78 189.03 178.463 189.03 179.175V179.175C189.03 179.888 188.748 180.571 188.245 181.074C187.741 181.578 187.057 181.861 186.345 181.861H102.641C102.288 181.862 101.938 181.792 101.612 181.657C101.286 181.522 100.989 181.325 100.739 181.075C100.49 180.826 100.292 180.53 100.157 180.204C100.021 179.878 99.9514 179.528 99.9512 179.175V179.175C99.9521 178.463 100.236 177.78 100.74 177.276C101.245 176.773 101.928 176.49 102.641 176.491V176.491Z" fill="#7086AA" data-v-cb739c68=""></path><path d="M232.446 24.7707C232.446 22.3343 231.479 19.9975 229.756 18.2746C228.033 16.5518 225.696 15.584 223.26 15.584H65.4507C64.2453 15.5828 63.0511 15.819 61.937 16.2793C60.8229 16.7396 59.811 17.4149 58.9579 18.2665C58.1048 19.1181 57.4277 20.1292 56.9655 21.2425C56.5033 22.3558 56.2651 23.5494 56.2642 24.7548V138.316H232.444L232.446 24.7707Z" fill="#2E233C" data-v-cb739c68=""></path><path d="M227.639 28.8724V126.449C227.64 127.042 227.525 127.631 227.298 128.18C227.072 128.729 226.739 129.228 226.32 129.648C225.901 130.069 225.404 130.403 224.856 130.631C224.307 130.859 223.718 130.977 223.125 130.978H65.5943C65.0005 130.978 64.4127 130.861 63.864 130.634C63.3154 130.407 62.8168 130.074 62.3968 129.655C61.9769 129.235 61.6434 128.736 61.4161 128.188C61.1888 127.639 61.0723 127.051 61.0723 126.457V28.8724C61.0684 28.0781 61.2765 27.2973 61.6757 26.6106C62.0728 25.9229 62.6441 25.352 63.332 24.9552C64.0199 24.5585 64.8001 24.35 65.5943 24.3506H223.118C224.317 24.3511 225.467 24.8275 226.315 25.6755C227.163 26.5235 227.639 27.6734 227.639 28.8724V28.8724Z" fill="#EEF8FF" data-v-cb739c68=""></path><path d="M111.5 62.7219H182.182V50.987C182.182 45.7472 178.179 43.5276 176.178 43.0728H117.777C113.192 43.7277 111.682 47.5302 111.5 49.3496V62.7219Z" fill="#BA3C3E" data-v-cb739c68=""></path><path d="M112.046 106.151V62.996L181.898 62.7246V105.065C182.114 110.276 179.201 112.212 177.852 112.393H118.249C113.934 111.742 112.315 107.96 112.046 106.151Z" fill="white" stroke="#D9D9D6" stroke-width="2" data-v-cb739c68=""></path><rect x="123.334" y="37.9141" width="5.45809" height="14.191" rx="2.72904" fill="#A7A8AA" data-v-cb739c68=""></rect><rect x="144.623" y="37.9141" width="5.45809" height="14.191" rx="2.72904" fill="#A7A8AA" data-v-cb739c68=""></rect><rect x="165.909" y="37.9141" width="5.45809" height="14.191" rx="2.72904" fill="#A7A8AA" data-v-cb739c68=""></rect><rect x="119.747" y="68.8374" width="6.18454" height="6.18454" rx="1" fill="#D9D9D9" data-v-cb739c68=""></rect><rect x="132.115" y="68.8374" width="6.18454" height="6.18454" rx="1" fill="#D9D9D9" data-v-cb739c68=""></rect><rect x="144.485" y="68.8374" width="6.18454" height="6.18454" rx="1" fill="#D9D9D9" data-v-cb739c68=""></rect><rect x="156.854" y="68.8374" width="6.18454" height="6.18454" rx="1" fill="#D9D9D9" data-v-cb739c68=""></rect><rect x="169.221" y="68.8374" width="6.18454" height="6.18454" rx="1" fill="#D9D9D9" data-v-cb739c68=""></rect><rect x="119.747" y="79.145" width="6.18454" height="6.18454" rx="1" fill="#D9D9D9" data-v-cb739c68=""></rect><rect x="132.115" y="79.145" width="6.18454" height="6.18454" rx="1" fill="#BA3C3E" data-v-cb739c68=""></rect><rect x="144.485" y="79.145" width="6.18454" height="6.18454" rx="1" fill="#D9D9D9" data-v-cb739c68=""></rect><rect x="156.854" y="79.145" width="6.18454" height="6.18454" rx="1" fill="#D9D9D9" data-v-cb739c68=""></rect><rect x="169.221" y="79.145" width="6.18454" height="6.18454" rx="1" fill="#D9D9D9" data-v-cb739c68=""></rect><rect x="119.747" y="89.4526" width="6.18454" height="6.18454" rx="1" fill="#D9D9D9" data-v-cb739c68=""></rect><rect x="132.115" y="89.4526" width="6.18454" height="6.18454" rx="1" fill="#D9D9D9" data-v-cb739c68=""></rect><rect x="144.485" y="89.4526" width="6.18454" height="6.18454" rx="1" fill="#D9D9D9" data-v-cb739c68=""></rect><rect x="156.854" y="89.4526" width="6.18454" height="6.18454" rx="1" fill="#D9D9D9" data-v-cb739c68=""></rect><rect x="169.221" y="89.4526" width="6.18454" height="6.18454" rx="1" fill="#D9D9D9" data-v-cb739c68=""></rect><rect x="119.747" y="99.7588" width="6.18454" height="6.18454" rx="1" fill="#D9D9D9" data-v-cb739c68=""></rect><rect x="132.115" y="99.7588" width="6.18454" height="6.18454" rx="1" fill="#D9D9D9" data-v-cb739c68=""></rect><rect x="144.485" y="99.7588" width="6.18454" height="6.18454" rx="1" fill="#D9D9D9" data-v-cb739c68=""></rect><rect x="156.854" y="99.7588" width="6.18454" height="6.18454" rx="1" fill="#D9D9D9" data-v-cb739c68=""></rect><rect x="169.221" y="99.7588" width="6.18454" height="6.18454" rx="1" fill="#D9D9D9" data-v-cb739c68=""></rect><path d="M190.092 122.174C189.806 122.349 189.515 122.517 189.22 122.679C189.12 122.734 189.019 122.788 188.92 122.841C188.691 122.963 188.462 123.08 188.232 123.195C182.79 125.866 176.52 126.303 170.761 124.412C165.001 122.521 160.21 118.452 157.412 113.074C154.614 107.697 154.031 101.438 155.787 95.6359C157.544 89.8341 161.5 84.9495 166.811 82.0267C167.108 81.8628 167.408 81.7053 167.71 81.5572C168.011 81.4091 168.298 81.2717 168.592 81.1406C173.98 78.7491 180.077 78.4976 185.644 80.4371C191.211 82.3766 195.831 86.3617 198.567 91.5836C201.302 96.8054 201.949 102.873 200.374 108.554C198.8 114.235 195.123 119.104 190.09 122.172L190.092 122.174Z" fill="#0061A0" data-v-cb739c68=""></path><path d="M187.674 118.21C187.445 118.35 187.212 118.484 186.976 118.614C186.896 118.658 186.816 118.701 186.736 118.744C186.553 118.841 186.37 118.935 186.185 119.026C181.832 121.164 176.816 121.513 172.208 120C167.601 118.487 163.768 115.232 161.53 110.93C159.291 106.628 158.825 101.621 160.23 96.9794C161.635 92.3379 164.8 88.4302 169.049 86.0919C169.287 85.9608 169.527 85.8349 169.768 85.7164C170.009 85.5979 170.238 85.4879 170.473 85.3831C174.784 83.4699 179.661 83.2687 184.115 84.8203C188.568 86.3719 192.265 89.56 194.453 93.7375C196.642 97.9149 197.159 102.769 195.9 107.314C194.64 111.858 191.698 115.754 187.672 118.209L187.674 118.21Z" fill="#FEFFFD" data-v-cb739c68=""></path><rect x="176.898" y="101.253" width="12.1591" height="2.21075" rx="1.10537" fill="#626263" data-v-cb739c68=""></rect><rect x="177.102" y="103.483" width="14.4235" height="1.80294" rx="0.901471" transform="rotate(-90 177.102 103.483)" fill="#242424" data-v-cb739c68=""></rect><path d="M178.71 103.512C178.693 103.522 178.676 103.532 178.659 103.541C178.653 103.545 178.647 103.548 178.642 103.551C178.628 103.558 178.615 103.565 178.602 103.571C178.285 103.727 177.919 103.752 177.584 103.642C177.248 103.532 176.969 103.295 176.806 102.982C176.643 102.669 176.609 102.304 176.712 101.966C176.814 101.628 177.044 101.343 177.354 101.173C177.371 101.164 177.389 101.155 177.406 101.146C177.424 101.137 177.44 101.129 177.457 101.122C177.771 100.982 178.126 100.968 178.451 101.081C178.775 101.194 179.044 101.426 179.204 101.73C179.363 102.034 179.401 102.388 179.309 102.718C179.217 103.049 179.003 103.333 178.71 103.512Z" fill="#769A2E" data-v-cb739c68=""></path><path d="M178.796 120.275C178.785 120.281 178.774 120.288 178.762 120.294C178.758 120.296 178.755 120.298 178.751 120.3C178.742 120.305 178.733 120.31 178.724 120.314C178.513 120.418 178.269 120.435 178.045 120.361C177.822 120.288 177.636 120.13 177.527 119.921C177.418 119.712 177.396 119.469 177.464 119.244C177.532 119.019 177.686 118.829 177.892 118.715C177.904 118.709 177.915 118.703 177.927 118.697C177.939 118.691 177.95 118.686 177.961 118.681C178.17 118.588 178.407 118.578 178.623 118.654C178.84 118.729 179.019 118.884 179.125 119.087C179.232 119.289 179.257 119.525 179.195 119.746C179.134 119.966 178.992 120.155 178.796 120.274L178.796 120.275Z" fill="#73BEF4" data-v-cb739c68=""></path><path d="M178.796 120.275C178.785 120.281 178.774 120.288 178.762 120.294C178.758 120.296 178.755 120.298 178.751 120.3C178.742 120.305 178.733 120.31 178.724 120.314C178.513 120.418 178.269 120.435 178.045 120.361C177.822 120.288 177.636 120.13 177.527 119.921C177.418 119.712 177.396 119.469 177.464 119.244C177.532 119.019 177.686 118.829 177.892 118.715C177.904 118.709 177.915 118.703 177.927 118.697C177.939 118.691 177.95 118.686 177.961 118.681C178.17 118.588 178.407 118.578 178.623 118.654C178.84 118.729 179.019 118.884 179.125 119.087C179.232 119.289 179.257 119.525 179.195 119.746C179.134 119.966 178.992 120.155 178.796 120.274L178.796 120.275Z" fill="#A4CE4E" data-v-cb739c68=""></path><path d="M195.923 101.564C195.93 101.575 195.937 101.587 195.943 101.598C195.945 101.602 195.947 101.606 195.949 101.61C195.954 101.619 195.959 101.627 195.963 101.636C196.067 101.848 196.084 102.091 196.01 102.315C195.937 102.539 195.779 102.725 195.57 102.833C195.361 102.942 195.118 102.965 194.893 102.896C194.668 102.828 194.478 102.675 194.364 102.468C194.358 102.457 194.352 102.445 194.346 102.433C194.34 102.422 194.335 102.411 194.33 102.399C194.237 102.19 194.227 101.953 194.303 101.737C194.378 101.521 194.533 101.341 194.735 101.235C194.938 101.129 195.174 101.104 195.395 101.165C195.615 101.226 195.804 101.369 195.923 101.564L195.923 101.564Z" fill="#A4CE4E" data-v-cb739c68=""></path><path d="M193.128 92.7116C193.139 92.7179 193.151 92.7244 193.162 92.7312C193.166 92.7335 193.169 92.7358 193.173 92.7381C193.182 92.7434 193.19 92.7489 193.198 92.7544C193.394 92.8855 193.53 93.0879 193.579 93.3183C193.627 93.5488 193.583 93.7889 193.456 93.9874C193.33 94.1859 193.131 94.3271 192.902 94.3807C192.672 94.4343 192.431 94.3961 192.23 94.2742C192.218 94.2674 192.207 94.2603 192.197 94.2531C192.186 94.2458 192.175 94.2389 192.165 94.2315C191.98 94.0967 191.853 93.8966 191.811 93.6717C191.768 93.4468 191.812 93.214 191.935 93.0206C192.057 92.8272 192.249 92.6877 192.47 92.6303C192.692 92.5729 192.927 92.6021 193.128 92.7118L193.128 92.7116Z" fill="black" data-v-cb739c68=""></path><path d="M186.279 86.4426C186.292 86.4423 186.305 86.4423 186.319 86.4426C186.323 86.4426 186.327 86.4428 186.332 86.4429C186.342 86.4433 186.352 86.4438 186.362 86.4444C186.597 86.4602 186.816 86.5673 186.973 86.7427C187.13 86.9181 187.212 87.148 187.202 87.3832C187.191 87.6184 187.09 87.8402 186.918 88.0012C186.746 88.1623 186.518 88.2497 186.283 88.2449C186.27 88.2446 186.256 88.2441 186.243 88.2432C186.23 88.2424 186.218 88.2414 186.206 88.2401C185.978 88.2159 185.768 88.106 185.619 87.9327C185.469 87.7594 185.391 87.5356 185.4 87.3069C185.41 87.0781 185.506 86.8615 185.669 86.701C185.832 86.5405 186.051 86.4482 186.279 86.4427L186.279 86.4426Z" fill="black" data-v-cb739c68=""></path><path d="M168.359 87.2349C168.365 87.2234 168.372 87.2121 168.379 87.201C168.381 87.1972 168.383 87.1934 168.386 87.1897C168.391 87.1811 168.396 87.1728 168.402 87.1644C168.533 86.9689 168.735 86.8325 168.966 86.7842C169.196 86.736 169.436 86.7798 169.635 86.9064C169.833 87.0329 169.975 87.2321 170.028 87.4613C170.082 87.6905 170.044 87.9316 169.922 88.133C169.915 88.1443 169.908 88.1555 169.901 88.1663C169.893 88.1771 169.886 88.1873 169.879 88.1974C169.744 88.3825 169.544 88.5093 169.319 88.5522C169.094 88.5951 168.861 88.5507 168.668 88.4282C168.475 88.3057 168.335 88.1142 168.278 87.8926C168.22 87.671 168.25 87.4358 168.359 87.2349L168.359 87.2349Z" fill="black" data-v-cb739c68=""></path><path d="M162.09 94.0836C162.09 94.0706 162.09 94.0576 162.09 94.0445C162.09 94.0401 162.09 94.0356 162.091 94.0313C162.091 94.0212 162.091 94.0112 162.092 94.0013C162.108 93.7664 162.215 93.547 162.39 93.39C162.566 93.2331 162.796 93.1509 163.031 93.1613C163.266 93.1716 163.488 93.2735 163.649 93.4452C163.81 93.6169 163.897 93.8448 163.893 94.0802C163.892 94.0934 163.892 94.1065 163.891 94.1195C163.89 94.1326 163.889 94.1449 163.888 94.1573C163.864 94.385 163.754 94.5949 163.58 94.7445C163.407 94.894 163.183 94.972 162.955 94.9626C162.726 94.9533 162.509 94.8572 162.349 94.6939C162.188 94.5307 162.096 94.3125 162.09 94.0836L162.09 94.0836Z" fill="black" data-v-cb739c68=""></path><path d="M178.698 86.6725C178.686 86.6793 178.675 86.6858 178.664 86.6921C178.66 86.6942 178.656 86.6963 178.652 86.6984C178.643 86.7031 178.634 86.7077 178.625 86.7121C178.414 86.8159 178.17 86.8329 177.947 86.7594C177.723 86.686 177.537 86.5279 177.428 86.3191C177.32 86.1103 177.297 85.8672 177.365 85.6419C177.434 85.4166 177.587 85.2269 177.793 85.1134C177.805 85.107 177.817 85.1009 177.828 85.0951C177.84 85.0894 177.851 85.0841 177.863 85.079C178.072 84.9861 178.309 84.9763 178.525 85.0516C178.741 85.127 178.92 85.2817 179.027 85.4845C179.133 85.6873 179.158 85.9229 179.097 86.1435C179.036 86.3642 178.893 86.5533 178.697 86.6724L178.698 86.6725Z" fill="#A4CE4E" data-v-cb739c68=""></path><path d="M162.265 101.564C162.272 101.575 162.278 101.587 162.284 101.598C162.287 101.602 162.289 101.606 162.291 101.61C162.295 101.619 162.3 101.627 162.304 101.636C162.408 101.848 162.425 102.091 162.352 102.315C162.278 102.539 162.12 102.725 161.911 102.833C161.703 102.942 161.459 102.965 161.234 102.896C161.009 102.828 160.819 102.675 160.706 102.468C160.699 102.457 160.693 102.445 160.687 102.433C160.682 102.422 160.676 102.411 160.671 102.399C160.578 102.19 160.569 101.953 160.644 101.737C160.719 101.521 160.874 101.341 161.077 101.235C161.28 101.129 161.515 101.104 161.736 101.165C161.956 101.226 162.146 101.369 162.265 101.564L162.265 101.564Z" fill="#A4CE4E" data-v-cb739c68=""></path><path d="M163.978 109.543C163.99 109.549 164.001 109.555 164.012 109.562C164.016 109.565 164.02 109.567 164.023 109.569C164.032 109.574 164.04 109.58 164.049 109.585C164.244 109.717 164.381 109.919 164.429 110.149C164.477 110.38 164.433 110.62 164.307 110.818C164.18 111.017 163.981 111.158 163.752 111.212C163.523 111.265 163.282 111.227 163.08 111.105C163.069 111.098 163.058 111.091 163.047 111.084C163.036 111.077 163.026 111.07 163.016 111.063C162.831 110.928 162.704 110.728 162.661 110.503C162.618 110.278 162.662 110.045 162.785 109.852C162.907 109.658 163.099 109.519 163.321 109.461C163.542 109.404 163.777 109.433 163.978 109.543L163.978 109.543Z" fill="black" data-v-cb739c68=""></path><path d="M169.449 115.592C169.462 115.592 169.475 115.592 169.488 115.592C169.492 115.593 169.497 115.593 169.501 115.593C169.511 115.593 169.521 115.594 169.531 115.594C169.766 115.61 169.985 115.717 170.142 115.893C170.299 116.068 170.382 116.298 170.371 116.533C170.361 116.768 170.259 116.99 170.087 117.151C169.916 117.312 169.688 117.4 169.452 117.395C169.439 117.395 169.426 117.394 169.413 117.393C169.4 117.392 169.388 117.391 169.375 117.39C169.148 117.366 168.938 117.256 168.788 117.083C168.638 116.909 168.56 116.686 168.57 116.457C168.579 116.228 168.675 116.011 168.839 115.851C169.002 115.69 169.22 115.598 169.449 115.593L169.449 115.592Z" fill="black" data-v-cb739c68=""></path><path d="M185.188 116.381C185.194 116.369 185.201 116.358 185.208 116.347C185.21 116.343 185.212 116.339 185.215 116.336C185.22 116.327 185.225 116.319 185.231 116.31C185.362 116.115 185.564 115.978 185.795 115.93C186.025 115.882 186.265 115.926 186.464 116.052C186.663 116.179 186.804 116.378 186.857 116.607C186.911 116.837 186.873 117.078 186.751 117.279C186.744 117.29 186.737 117.301 186.73 117.312C186.722 117.323 186.715 117.333 186.708 117.343C186.573 117.528 186.373 117.655 186.148 117.698C185.923 117.741 185.691 117.697 185.497 117.574C185.304 117.452 185.164 117.26 185.107 117.039C185.049 116.817 185.079 116.582 185.188 116.381L185.188 116.381Z" fill="black" data-v-cb739c68=""></path><path d="M191.239 110.911C191.239 110.898 191.239 110.885 191.239 110.872C191.239 110.868 191.239 110.863 191.24 110.859C191.24 110.849 191.24 110.839 191.241 110.829C191.257 110.594 191.364 110.375 191.539 110.218C191.715 110.061 191.945 109.979 192.18 109.989C192.415 109.999 192.637 110.101 192.798 110.273C192.959 110.445 193.046 110.672 193.042 110.908C193.041 110.921 193.041 110.934 193.04 110.947C193.039 110.96 193.038 110.973 193.037 110.985C193.013 111.213 192.903 111.423 192.729 111.572C192.556 111.722 192.332 111.8 192.103 111.79C191.875 111.781 191.658 111.685 191.498 111.522C191.337 111.358 191.245 111.14 191.239 110.911L191.239 110.911Z" fill="black" data-v-cb739c68=""></path><path d="M144.355 22.0794C145.524 22.0794 146.473 21.1313 146.473 19.9618C146.473 18.7923 145.524 17.8442 144.355 17.8442C143.185 17.8442 142.237 18.7923 142.237 19.9618C142.237 21.1313 143.185 22.0794 144.355 22.0794Z" fill="white" data-v-cb739c68=""></path><path d="M144.355 149.008C145.498 149.008 146.424 148.082 146.424 146.938C146.424 145.795 145.498 144.869 144.355 144.869C143.211 144.869 142.285 145.795 142.285 146.938C142.285 148.082 143.211 149.008 144.355 149.008Z" fill="white" data-v-cb739c68=""></path><path d="M227.638 28.8724H61.0874C61.0874 28.2786 61.2048 27.6909 61.4321 27.1422C61.6593 26.5936 61.992 26.095 62.4119 25.6751C62.8318 25.2552 63.3305 24.9221 63.8791 24.6948C64.4278 24.4676 65.0155 24.3506 65.6093 24.3506H223.117C224.316 24.3511 225.467 24.8275 226.315 25.6755C227.162 26.5235 227.638 27.6734 227.638 28.8724V28.8724Z" fill="#A1C0D8" data-v-cb739c68=""></path><path d="M65.5916 27.7438C66.2177 27.7438 66.7253 27.2362 66.7253 26.6102C66.7253 25.9841 66.2177 25.4766 65.5916 25.4766C64.9656 25.4766 64.458 25.9841 64.458 26.6102C64.458 27.2362 64.9656 27.7438 65.5916 27.7438Z" fill="#E9E7EB" data-v-cb739c68=""></path><path d="M68.9894 27.7438C69.6154 27.7438 70.123 27.2362 70.123 26.6102C70.123 25.9841 69.6154 25.4766 68.9894 25.4766C68.3633 25.4766 67.8557 25.9841 67.8557 26.6102C67.8557 27.2362 68.3633 27.7438 68.9894 27.7438Z" fill="#E9E7EB" data-v-cb739c68=""></path><path d="M72.3831 27.7438C73.0092 27.7438 73.5168 27.2362 73.5168 26.6102C73.5168 25.9841 73.0092 25.4766 72.3831 25.4766C71.7571 25.4766 71.2495 25.9841 71.2495 26.6102C71.2495 27.2362 71.7571 27.7438 72.3831 27.7438Z" fill="#E9E7EB" data-v-cb739c68=""></path><rect x="76" y="51" width="42.3203" height="23.5112" rx="1.2692" fill="#BBE565" data-v-cb739c68=""></rect><path d="M107.134 77.7104L107.134 74.5658L99.8664 74.5658L106.512 78.0839C106.794 78.2331 107.134 78.0292 107.134 77.7104Z" fill="#BBE565" stroke="#BBE565" stroke-width="0.379899" data-v-cb739c68=""></path><circle cx="97.1599" cy="62.8003" r="8.41491" fill="white" stroke="#BBE565" stroke-width="0.721939" data-v-cb739c68=""></circle><path fill-rule="evenodd" clip-rule="evenodd" d="M102.042 59.5579L96.0442 67.2216L92.2683 63.5855L93.509 62.2971L95.8572 64.5584L100.633 58.4556L102.042 59.5579Z" fill="#BBE565" data-v-cb739c68=""></path></svg>